%TF.GenerationSoftware,KiCad,Pcbnew,8.0.6*%
%TF.CreationDate,2024-11-11T12:53:10+02:00*%
%TF.ProjectId,Universal_Adaptor,556e6976-6572-4736-916c-5f4164617074,rev?*%
%TF.SameCoordinates,Original*%
%TF.FileFunction,Plated,1,2,PTH,Drill*%
%TF.FilePolarity,Positive*%
%FSLAX46Y46*%
G04 Gerber Fmt 4.6, Leading zero omitted, Abs format (unit mm)*
G04 Created by KiCad (PCBNEW 8.0.6) date 2024-11-11 12:53:10*
%MOMM*%
%LPD*%
G01*
G04 APERTURE LIST*
%TA.AperFunction,ViaDrill*%
%ADD10C,0.300000*%
%TD*%
%TA.AperFunction,ComponentDrill*%
%ADD11C,1.000000*%
%TD*%
%TA.AperFunction,ComponentDrill*%
%ADD12C,1.020000*%
%TD*%
%TA.AperFunction,ComponentDrill*%
%ADD13C,1.050000*%
%TD*%
%TA.AperFunction,ComponentDrill*%
%ADD14C,3.200000*%
%TD*%
%TA.AperFunction,ComponentDrill*%
%ADD15C,6.100000*%
%TD*%
G04 APERTURE END LIST*
D10*
X92000000Y-60525000D03*
X100000000Y-60575000D03*
X112125000Y-60225000D03*
X142100000Y-44350000D03*
X152250000Y-159225000D03*
X153225000Y-154125000D03*
X153225000Y-155550000D03*
X154145000Y-154838000D03*
X155125000Y-154125000D03*
X155125000Y-155550000D03*
X157700000Y-161250000D03*
X159000000Y-159900000D03*
D11*
%TO.C,J21*%
X64560000Y-63500000D03*
%TO.C,J20*%
X64560000Y-70300000D03*
%TO.C,J21*%
X67100000Y-63500000D03*
%TO.C,J20*%
X67100000Y-70300000D03*
%TO.C,J26*%
X73260000Y-168450000D03*
X75800000Y-168450000D03*
%TO.C,J17*%
X79956250Y-165900000D03*
X79956250Y-168440000D03*
%TO.C,J16*%
X84137500Y-165900000D03*
X84137500Y-168440000D03*
%TO.C,J14*%
X88318750Y-165900000D03*
X88318750Y-168440000D03*
%TO.C,J12*%
X98575000Y-32210000D03*
X98575000Y-34750000D03*
%TO.C,S1*%
X99875000Y-179300000D03*
X99875000Y-183800000D03*
%TO.C,J12*%
X101115000Y-32210000D03*
X101115000Y-34750000D03*
%TO.C,S1*%
X106375000Y-179300000D03*
X106375000Y-183800000D03*
%TO.C,J13*%
X109120000Y-164700000D03*
X109120000Y-167240000D03*
X111660000Y-164700000D03*
X111660000Y-167240000D03*
X114200000Y-164700000D03*
X114200000Y-167240000D03*
%TO.C,J11*%
X121920000Y-164700000D03*
X121920000Y-167240000D03*
X124460000Y-164700000D03*
X124460000Y-167240000D03*
X127000000Y-164700000D03*
X127000000Y-167240000D03*
%TO.C,J7*%
X136100000Y-33825000D03*
X136100000Y-36365000D03*
%TO.C,J6*%
X161760000Y-152110000D03*
X161760000Y-154650000D03*
X164300000Y-152110000D03*
X164300000Y-154650000D03*
%TO.C,J10*%
X166125000Y-55930000D03*
X166125000Y-58470000D03*
X166125000Y-61010000D03*
X166125000Y-63550000D03*
D12*
%TO.C,J1*%
X84998000Y-50401000D03*
X84998000Y-52941000D03*
%TO.C,J22*%
X84998000Y-55481000D03*
X84998000Y-58021000D03*
%TO.C,J1*%
X87538000Y-50401000D03*
X87538000Y-52941000D03*
%TO.C,J22*%
X87538000Y-55481000D03*
X87538000Y-58021000D03*
%TO.C,J1*%
X90078000Y-50401000D03*
X90078000Y-52941000D03*
%TO.C,J22*%
X90078000Y-55481000D03*
X90078000Y-58021000D03*
%TO.C,J1*%
X92618000Y-50401000D03*
X92618000Y-52941000D03*
%TO.C,J22*%
X92618000Y-55481000D03*
X92618000Y-58021000D03*
%TO.C,J1*%
X95158000Y-50401000D03*
X95158000Y-52941000D03*
%TO.C,J22*%
X95158000Y-55481000D03*
X95158000Y-58021000D03*
%TO.C,J1*%
X97698000Y-50401000D03*
X97698000Y-52941000D03*
%TO.C,J22*%
X97698000Y-55481000D03*
X97698000Y-58021000D03*
%TO.C,J1*%
X100238000Y-50401000D03*
X100238000Y-52941000D03*
%TO.C,J22*%
X100238000Y-55481000D03*
X100238000Y-58021000D03*
%TO.C,J1*%
X102778000Y-50401000D03*
X102778000Y-52941000D03*
%TO.C,J22*%
X102778000Y-55481000D03*
X102778000Y-58021000D03*
%TO.C,J1*%
X105318000Y-50401000D03*
X105318000Y-52941000D03*
%TO.C,J22*%
X105318000Y-55481000D03*
X105318000Y-58021000D03*
%TO.C,J1*%
X107858000Y-50401000D03*
X107858000Y-52941000D03*
%TO.C,J22*%
X107858000Y-55481000D03*
X107858000Y-58021000D03*
%TO.C,J1*%
X110398000Y-50401000D03*
X110398000Y-52941000D03*
%TO.C,J22*%
X110398000Y-55481000D03*
X110398000Y-58021000D03*
%TO.C,J1*%
X112938000Y-50401000D03*
X112938000Y-52941000D03*
%TO.C,J22*%
X112938000Y-55481000D03*
X112938000Y-58021000D03*
%TO.C,J1*%
X115478000Y-50401000D03*
X115478000Y-52941000D03*
%TO.C,J22*%
X115478000Y-55481000D03*
X115478000Y-58021000D03*
%TO.C,J1*%
X118018000Y-50401000D03*
X118018000Y-52941000D03*
%TO.C,J22*%
X118018000Y-55481000D03*
X118018000Y-58021000D03*
%TO.C,J1*%
X120558000Y-50401000D03*
X120558000Y-52941000D03*
%TO.C,J22*%
X120558000Y-55481000D03*
X120558000Y-58021000D03*
%TO.C,J1*%
X123098000Y-50401000D03*
X123098000Y-52941000D03*
%TO.C,J22*%
X123098000Y-55481000D03*
X123098000Y-58021000D03*
%TO.C,J1*%
X125638000Y-50401000D03*
X125638000Y-52941000D03*
%TO.C,J22*%
X125638000Y-55481000D03*
X125638000Y-58021000D03*
%TO.C,J1*%
X128178000Y-50401000D03*
X128178000Y-52941000D03*
%TO.C,J22*%
X128178000Y-55481000D03*
X128178000Y-58021000D03*
%TO.C,J1*%
X130718000Y-50401000D03*
X130718000Y-52941000D03*
%TO.C,J22*%
X130718000Y-55481000D03*
X130718000Y-58021000D03*
%TO.C,J1*%
X133258000Y-50401000D03*
X133258000Y-52941000D03*
%TO.C,J22*%
X133258000Y-55481000D03*
X133258000Y-58021000D03*
%TO.C,J1*%
X135798000Y-50401000D03*
X135798000Y-52941000D03*
%TO.C,J22*%
X135798000Y-55481000D03*
X135798000Y-58021000D03*
%TO.C,J1*%
X138338000Y-50401000D03*
X138338000Y-52941000D03*
%TO.C,J22*%
X138338000Y-55481000D03*
X138338000Y-58021000D03*
%TO.C,J2*%
X138825000Y-167000000D03*
X138825000Y-169540000D03*
X138825000Y-172080000D03*
X138825000Y-174620000D03*
X138825000Y-177160000D03*
X138825000Y-179700000D03*
X138825000Y-182240000D03*
%TO.C,J1*%
X140878000Y-50401000D03*
X140878000Y-52941000D03*
%TO.C,J22*%
X140878000Y-55481000D03*
X140878000Y-58021000D03*
%TO.C,J1*%
X143418000Y-50401000D03*
X143418000Y-52941000D03*
%TO.C,J22*%
X143418000Y-55481000D03*
X143418000Y-58021000D03*
%TO.C,J1*%
X145958000Y-50401000D03*
X145958000Y-52941000D03*
%TO.C,J22*%
X145958000Y-55481000D03*
X145958000Y-58021000D03*
%TO.C,J1*%
X148498000Y-50401000D03*
X148498000Y-52941000D03*
%TO.C,J22*%
X148498000Y-55481000D03*
X148498000Y-58021000D03*
%TO.C,J9*%
X154325000Y-167000000D03*
X154325000Y-169540000D03*
X154325000Y-172080000D03*
X154325000Y-174620000D03*
X154325000Y-177160000D03*
X154325000Y-179700000D03*
X154325000Y-182240000D03*
D13*
%TO.C,J8*%
X84275000Y-181650000D03*
X84275000Y-183650000D03*
X86275000Y-181650000D03*
X86275000Y-183650000D03*
X88275000Y-181650000D03*
X88275000Y-183650000D03*
X90275000Y-181650000D03*
X90275000Y-183650000D03*
D14*
%TO.C,H1*%
X63575000Y-36125000D03*
%TO.C,H2*%
X63575000Y-188350000D03*
%TO.C,H7*%
X76137000Y-136109000D03*
%TO.C,H5*%
X79960000Y-50385000D03*
%TO.C,H6*%
X153600000Y-50385000D03*
%TO.C,H8*%
X156107000Y-136069000D03*
%TO.C,H3*%
X168600000Y-36125000D03*
%TO.C,H4*%
X168600000Y-188350000D03*
D15*
%TO.C,J3*%
X98475000Y-23200000D03*
%TO.C,J4*%
X117275000Y-23200000D03*
%TO.C,J5*%
X136075000Y-23200000D03*
M02*
